<?xml version="1.0" encoding="utf-8"?>
<!-- Generator: Adobe Illustrator 16.0.0, SVG Export Plug-In . SVG Version: 6.00 Build 0)  -->
<!DOCTYPE svg PUBLIC "-//W3C//DTD SVG 1.1//EN" "http://www.w3.org/Graphics/SVG/1.1/DTD/svg11.dtd">
<svg version="1.1" id="Layer_1" xmlns="http://www.w3.org/2000/svg" xmlns:xlink="http://www.w3.org/1999/xlink" x="0px" y="0px"
	 width="78.188px" height="80px" viewBox="1 0 78.188 80" enable-background="new 1 0 78.188 80" xml:space="preserve">
<g>
	<title>Layer 1</title>
	<g id="svg_1_1_">
		<g id="svg_32">
			<g id="svg_24">
				<g id="svg_16">
					<polygon id="svg_10" fill="#A5A5A5" points="60.192,35.244 41.021,46.242 41.021,68.339 60.053,79.398 79.127,68.516 
						79.188,46.281 					"/>
					<polygon id="svg_11" fill="#9A9A9A" points="41.021,68.339 60.053,79.398 60.057,57.309 41.021,46.242 					"/>
					<polygon id="svg_12" fill="#8F8F8F" points="60.057,57.309 60.053,79.398 79.188,68.482 79.188,46.281 					"/>
					<polygon id="svg_13" fill="#E7E7E7" points="60.328,43.82 48.673,50.693 48.603,63.879 60.053,70.689 71.837,64.044 
						71.874,50.529 					"/>
					<polygon id="svg_14" fill="#D3D3D3" points="60.053,70.689 60.102,57.361 71.874,50.529 71.837,64.044 					"/>
					<polygon id="svg_15" fill="#FFFFFF" points="48.673,50.693 60.102,57.361 71.874,50.529 60.328,43.82 					"/>
				</g>
				<g id="svg_23">
					<polygon id="svg_17" fill="#A5A5A5" points="20.171,35.244 1,46.242 1,68.339 20.032,79.398 39.106,68.516 39.167,46.281 					
						"/>
					<polygon id="svg_18" fill="#9A9A9A" points="1,68.339 20.032,79.398 20.036,57.309 1,46.242 					"/>
					<polygon id="svg_19" fill="#8F8F8F" points="20.036,57.309 20.032,79.398 39.167,68.482 39.167,46.281 					"/>
					<polygon id="svg_20" fill="#E7E7E7" points="20.307,43.82 8.652,50.693 8.582,63.879 20.032,70.689 31.816,64.044 
						31.853,50.529 					"/>
					<polygon id="svg_21" fill="#D3D3D3" points="20.032,70.689 20.081,57.361 31.853,50.529 31.816,64.044 					"/>
					<polygon id="svg_22" fill="#FFFFFF" points="8.652,50.693 20.081,57.361 31.853,50.529 20.307,43.82 					"/>
				</g>
			</g>
			<g id="svg_31">
				<polygon id="svg_25" fill="#A5A5A5" points="40.076,0.602 21.05,11.6 21.05,33.697 40.082,44.756 59.156,33.874 59.218,11.64 
									"/>
				<polygon id="svg_26" fill="#9A9A9A" points="21.05,33.697 40.082,44.756 40.086,22.667 21.05,11.6 				"/>
				<polygon id="svg_27" fill="#8F8F8F" points="40.086,22.667 40.082,44.756 59.218,33.84 59.218,11.64 				"/>
				<polygon id="svg_28" fill="#E7E7E7" points="40.357,9.178 28.703,16.053 28.632,29.237 40.082,36.047 51.866,29.402 
					51.904,15.887 				"/>
				<polygon id="svg_29" fill="#D3D3D3" points="40.082,36.047 40.132,22.72 51.904,15.887 51.866,29.402 				"/>
				<polygon id="svg_30" fill="#FFFFFF" points="28.703,16.053 40.132,22.72 51.904,15.887 40.357,9.178 				"/>
			</g>
		</g>
	</g>
</g>
</svg>
