<?xml version="1.0" encoding="UTF-8"?>
<svg width="288" height="80" xmlns="http://www.w3.org/2000/svg">
 <!-- Created with Method Draw - http://github.com/duopixel/Method-Draw/ -->
 <g>
  <title>Layer 1</title>
  <g id="svg_1">
   <g id="svg_9">
    <path id="svg_1" d="m90.468002,61.825989l0,-43.652008l19.673996,0c2.048996,0 3.945007,0.431 5.687012,1.291016c1.742004,0.860992 3.247986,1.988983 4.518982,3.381989c1.269012,1.394012 2.264008,2.972015 2.981018,4.734009c0.71698,1.763 1.075989,3.54599 1.075989,5.348999c0,1.352997 -0.165009,2.654999 -0.492004,3.903992c-0.328003,1.251007 -0.798981,2.428009 -1.414001,3.536011c-0.61499,1.105988 -1.363983,2.100983 -2.244995,2.980988c-0.881989,0.882019 -1.875,1.630005 -2.980988,2.244019l10.022003,16.231995l-11.374023,0l-8.791992,-14.080017l-6.578995,0l0,14.080017l-10.082001,-0.001007l0,0zm10.084,-22.871002l9.222,0c1.188004,0 2.212997,-0.562988 3.074005,-1.69101c0.860001,-1.126984 1.291,-2.570984 1.291,-4.334991c0,-1.803009 -0.490997,-3.237 -1.475006,-4.303009c-0.984009,-1.064972 -2.050003,-1.598999 -3.197998,-1.598999l-8.914001,0l0,11.928009l0,0z" fill="#F58220"/>
    <path id="svg_2" d="m132.274994,61.825989l0,-43.652008l10.083008,0l0,43.652008l-10.083008,0z" fill="#F58220"/>
    <path id="svg_3" d="m183.980988,27.027008l-13.279999,0l0,34.799011l-10.083008,0l0,-34.799011l-13.34198,0l0,-8.852997l36.704987,0l0,8.852997l0,0z" fill="#F58220"/>
    <path id="svg_4" d="m178.140015,61.825989l0,-27.655975l11.803009,0c1.324005,0 2.536987,0.27301 3.640991,0.817993c1.104004,0.545013 2.050995,1.26001 2.843994,2.141998c0.792999,0.882996 1.416016,1.882996 1.870026,3s0.681976,2.246002 0.681976,3.389008c0,1.220001 -0.214996,2.389008 -0.641998,3.506012c-0.428986,1.116974 -1.026001,2.116974 -1.791992,2.998993c-0.765991,0.882996 -1.695007,1.584991 -2.785004,2.104004c-1.091003,0.519989 -2.298004,0.778992 -3.622009,0.778992l-5.609985,0l0,8.92099l-6.389008,0l0,-0.002014zm6.388,-14.48999l5.220001,0c0.752991,0 1.402008,-0.324005 1.946991,-0.973999c0.54599,-0.648987 0.819,-1.596985 0.819,-2.843994c0,-0.649017 -0.084991,-1.208008 -0.253998,-1.675018c-0.169006,-0.467987 -0.395996,-0.856995 -0.682007,-1.168976s-0.610992,-0.539001 -0.973999,-0.682007s-0.72699,-0.214996 -1.089996,-0.214996l-4.985992,0l0,7.55899z"/>
    <path id="svg_5" d="m221.727997,56.21701l0,5.609009l-19.437988,0l0,-27.656006l19.087006,0l0,5.609009l-12.699005,0l0,5.375l10.907013,0l0,5.181l-10.907013,0l0,5.882996l13.049988,0l0,-0.001007z"/>
    <path id="svg_6" d="m225.701996,61.825989l0,-27.655975l10.322998,0c2.285004,0 4.285004,0.363007 5.998993,1.089996s3.14801,1.713989 4.304016,2.959991c1.154999,1.247009 2.026001,2.707001 2.609985,4.382996c0.584015,1.675018 0.877014,3.460999 0.877014,5.355011c0,2.104004 -0.325012,4.006989 -0.973999,5.707001c-0.649994,1.700989 -1.578003,3.154999 -2.785004,4.363007c-1.208008,1.208008 -2.661987,2.141998 -4.363007,2.803986c-1.699982,0.662994 -3.589996,0.993011 -5.666992,0.993011l-10.324005,0.000977l0,0zm17.606018,-13.867981c0,-1.218994 -0.162994,-2.329987 -0.487,-3.329987c-0.324005,-1 -0.798004,-1.864014 -1.42099,-2.591003s-1.390015,-1.285004 -2.298004,-1.675018c-0.910004,-0.389984 -1.934998,-0.583984 -3.076996,-0.583984l-3.935028,0l0,16.438995l3.935028,0c1.168976,0 2.205994,-0.208008 3.115997,-0.622986c0.908997,-0.415009 1.668976,-0.993011 2.277985,-1.734009c0.610992,-0.740021 1.078003,-1.609009 1.402008,-2.610016c0.323975,-0.998993 0.487,-2.096985 0.487,-3.291992z"/>
    <path id="svg_7" d="m253.631989,61.825989l0,-27.655975l6.388,0l0,27.656982l-6.388,0l0,-0.001007z"/>
    <path id="svg_8" d="m262.588989,61.825989l10.634003,-27.657013l5.181,0l10.596008,27.657013l-6.778015,0l-2.142975,-6.192993l-8.609009,0l-2.102997,6.192993l-6.778015,0zm13.206024,-20.878998l-3.311005,10.283997l6.505005,0l-3.194,-10.283997z"/>
   </g>
   <g id="svg_32">
    <g id="svg_24">
     <g id="svg_16">
      <polygon id="svg_10" points="60.19200134277344,35.243988037109375 41.02099609375,46.24200439453125 41.02099609375,68.3389892578125 60.05299377441406,79.39801025390625 79.12699890136719,68.5159912109375 79.18800354003906,46.281005859375 " fill="#F7941E"/>
      <polygon id="svg_11" points="41.02099609375,68.3389892578125 60.05299377441406,79.39801025390625 60.0570068359375,57.308013916015625 41.02099609375,46.24200439453125 " fill="#F58220"/>
      <polygon id="svg_12" points="60.0570068359375,57.308013916015625 60.05299377441406,79.39801025390625 79.18800354003906,68.48199462890625 79.18800354003906,46.281005859375 " fill="#F37021"/>
      <polygon id="svg_13" points="60.3280029296875,43.82000732421875 48.673004150390625,50.694000244140625 48.602996826171875,63.878997802734375 60.05299377441406,70.68899536132812 71.83700561523438,64.04400634765625 71.87399291992188,50.52899169921875 " fill="#E6E7E8"/>
      <polygon id="svg_14" points="60.05299377441406,70.68899536132812 60.10200500488281,57.36199951171875 71.87399291992188,50.52899169921875 71.83700561523438,64.04400634765625 " fill="#D1D3D4"/>
      <polygon id="svg_15" points="48.673004150390625,50.694000244140625 60.10200500488281,57.36199951171875 71.87399291992188,50.52899169921875 60.3280029296875,43.82000732421875 " fill="#FFFFFF"/>
     </g>
     <g id="svg_23">
      <polygon id="svg_17" points="20.171005249023438,35.243988037109375 1,46.24200439453125 1,68.3389892578125 20.031997680664062,79.39801025390625 39.10600280761719,68.5159912109375 39.16700744628906,46.281005859375 " fill="#F7941E"/>
      <polygon id="svg_18" points="1,68.3389892578125 20.031997680664062,79.39801025390625 20.035995483398438,57.308013916015625 1,46.24200439453125 " fill="#F58220"/>
      <polygon id="svg_19" points="20.035995483398438,57.308013916015625 20.031997680664062,79.39801025390625 39.16700744628906,68.48199462890625 39.16700744628906,46.281005859375 " fill="#F37021"/>
      <polygon id="svg_20" points="20.3070068359375,43.82000732421875 8.651992797851562,50.694000244140625 8.582000732421875,63.878997802734375 20.031997680664062,70.68899536132812 31.815994262695312,64.04400634765625 31.852996826171875,50.52899169921875 " fill="#E6E7E8"/>
      <polygon id="svg_21" points="20.031997680664062,70.68899536132812 20.08099365234375,57.36199951171875 31.852996826171875,50.52899169921875 31.815994262695312,64.04400634765625 " fill="#D1D3D4"/>
      <polygon id="svg_22" points="8.651992797851562,50.694000244140625 20.08099365234375,57.36199951171875 31.852996826171875,50.52899169921875 20.3070068359375,43.82000732421875 " fill="#FFFFFF"/>
     </g>
    </g>
    <g id="svg_31">
     <polygon id="svg_25" points="40.07600402832031,0.6020050048828125 21.050003051757812,11.600006103515625 21.050003051757812,33.696990966796875 40.082000732421875,44.756011962890625 59.156005859375,33.873992919921875 59.21800231933594,11.6400146484375 " fill="#F7941E"/>
     <polygon id="svg_26" points="21.050003051757812,33.696990966796875 40.082000732421875,44.756011962890625 40.08599853515625,22.6669921875 21.050003051757812,11.600006103515625 " fill="#F58220"/>
     <polygon id="svg_27" points="40.08599853515625,22.6669921875 40.082000732421875,44.756011962890625 59.21800231933594,33.839996337890625 59.21800231933594,11.6400146484375 " fill="#F37021"/>
     <polygon id="svg_28" points="40.35699462890625,9.178009033203125 28.7030029296875,16.053009033203125 28.632003784179688,29.23699951171875 40.082000732421875,36.0469970703125 51.865997314453125,29.402008056640625 51.90400695800781,15.886993408203125 " fill="#E6E7E8"/>
     <polygon id="svg_29" points="40.082000732421875,36.0469970703125 40.13200378417969,22.720001220703125 51.90400695800781,15.886993408203125 51.865997314453125,29.402008056640625 " fill="#D1D3D4"/>
     <polygon id="svg_30" points="28.7030029296875,16.053009033203125 40.13200378417969,22.720001220703125 51.90400695800781,15.886993408203125 40.35699462890625,9.178009033203125 " fill="#FFFFFF"/>
    </g>
   </g>
  </g>
 </g>
</svg>